<svg width="160" height="40" viewBox="0 0 160 40" fill="none" xmlns="http://www.w3.org/2000/svg">
<g clip-path="url(#clip0)">
<path d="M54.2229 21.6734H51.0901V20.7107H58.4222V21.6734H55.2893V29.9294H54.2229V21.6734Z" fill="white"/>
<path d="M60.6624 20.7107H61.7134V24.8034H67.0964V20.7107H68.1475V29.9294H67.0964V25.7813H61.7134V29.9294H60.6624V20.7107Z" fill="white"/>
<path d="M71.0557 20.7107H77.801V21.6583H72.1119V24.8034H77.204V25.751H72.1119V28.9768H77.8724V29.9244H71.0608V20.7107H71.0557Z" fill="white"/>
<path d="M80.8521 20.7107H85.184C86.2504 20.7107 87.0922 21.003 87.6229 21.5272C88.0515 21.9506 88.2607 22.4597 88.2607 23.12C88.2607 24.1583 87.6994 24.7379 87.0361 25.1109C88.1178 25.5192 88.7811 26.1391 88.7811 27.3992C88.7811 29.0827 87.3933 29.9294 85.2911 29.9294H80.8521V20.7107ZM84.7452 24.4355C85.6534 24.4355 86.2248 24.1482 86.2248 23.4325C86.2248 22.8276 85.7452 22.4849 84.8778 22.4849H82.8522V24.4355H84.7452ZM85.2911 28.1502C86.1993 28.1502 86.7453 27.8327 86.7453 27.122C86.7453 26.502 86.281 26.119 85.2248 26.119H82.8522V28.1452H85.2911V28.1502Z" fill="white"/>
<path d="M89.7966 25.3175C89.7966 22.6965 91.8886 20.5493 94.7663 20.5493C97.644 20.5493 99.7105 22.6713 99.7105 25.3175C99.7105 27.9384 97.6185 30.0856 94.7408 30.0856C91.8631 30.0856 89.7966 27.9636 89.7966 25.3175ZM97.5675 25.3175C97.5675 23.7398 96.394 22.4193 94.7408 22.4193C93.0876 22.4193 91.9396 23.7096 91.9396 25.3175C91.9396 26.8951 93.1132 28.2156 94.7663 28.2156C96.4195 28.2156 97.5675 26.9253 97.5675 25.3175Z" fill="white"/>
<path d="M104.405 20.645H106.298L110.298 29.9293H108.15L107.298 27.8628H103.354L102.502 29.9293H100.41L104.405 20.645ZM106.563 26.0684L105.323 23.0795L104.083 26.0684H106.563Z" fill="white"/>
<path d="M112.977 22.5807H110.14V20.7107H117.87V22.5807H115.033V29.9294H112.982V22.5807H112.977Z" fill="white"/>
<path d="M118.865 28.5836L120.079 27.1471C120.921 27.8326 121.799 28.2661 122.865 28.2661C123.707 28.2661 124.212 27.9385 124.212 27.3689C124.212 26.8548 123.891 26.5927 122.335 26.1995C120.457 25.7258 119.243 25.2116 119.243 23.3568C119.243 21.6834 120.6 20.5796 122.508 20.5796C123.87 20.5796 125.029 21.003 125.973 21.7489L124.906 23.2762C124.08 22.7116 123.268 22.3689 122.483 22.3689C121.697 22.3689 121.284 22.7268 121.284 23.2006C121.284 23.8054 121.681 24.002 123.294 24.4102C125.187 24.8991 126.253 25.5695 126.253 27.2026C126.253 29.0322 124.84 30.0604 122.83 30.0604C121.411 30.0604 119.988 29.5715 118.865 28.5836Z" fill="white"/>
<path d="M127.146 28.5432H128.371V29.9243H127.146V28.5432Z" fill="white"/>
<path d="M129.223 25.3175C129.223 22.7116 131.197 20.5493 133.942 20.5493C135.636 20.5493 136.621 21.1693 137.555 22.0362L136.861 22.7721C136.075 22.0362 135.192 21.507 133.927 21.507C131.861 21.507 130.315 23.1652 130.315 25.3124C130.315 27.4445 131.876 29.1179 133.927 29.1179C135.208 29.1179 136.045 28.629 136.937 27.7872L137.631 28.513C136.657 29.4858 135.59 30.0806 133.902 30.0806C131.207 30.0856 129.223 27.9888 129.223 25.3175Z" fill="white"/>
<path d="M139.06 25.3175C139.06 22.7771 140.994 20.5493 143.831 20.5493C146.668 20.5493 148.576 22.7469 148.576 25.3175C148.576 27.8578 146.642 30.0856 143.805 30.0856C140.968 30.0856 139.06 27.888 139.06 25.3175ZM147.484 25.3175C147.484 23.2257 145.938 21.512 143.805 21.512C141.672 21.512 140.152 23.1955 140.152 25.3175C140.152 27.4092 141.698 29.1229 143.831 29.1229C145.964 29.1229 147.484 27.4394 147.484 25.3175Z" fill="white"/>
<path d="M151.071 20.7107H152.137L155.535 25.7409L158.934 20.7107H160V29.9294H158.949V22.4597L155.551 27.3992H155.5L152.101 22.4748V29.9294H151.076V20.7107H151.071Z" fill="white"/>
<path d="M14.2867 12.1319V13.0039C14.2867 13.0442 14.3173 13.0745 14.3581 13.0745H27.2212C27.2824 13.0745 27.3181 13.0039 27.2773 12.9585L26.5987 12.0866C26.5834 12.0664 26.563 12.0563 26.5426 12.0563H14.3581C14.3173 12.0563 14.2867 12.0916 14.2867 12.1319ZM14.9296 9.71762V10.5896C14.9296 10.6299 14.9602 10.6602 15.001 10.6602H23.8791C23.9404 10.6602 23.9761 10.5896 23.9353 10.5392L23.1801 9.66722C23.1648 9.65209 23.1444 9.64201 23.124 9.64201H15.001C14.9602 9.64201 14.9296 9.6773 14.9296 9.71762ZM15.0418 2.47467V3.34665C15.0418 3.38697 15.0725 3.41721 15.1133 3.41721H18.8941C18.9554 3.41721 18.9911 3.34665 18.9502 3.29625L18.3329 2.42427C18.3176 2.40915 18.2971 2.39907 18.2767 2.39907H15.1133C15.0725 2.40411 15.0418 2.43435 15.0418 2.47467ZM16.5777 4.88899V5.67528C16.5777 5.7156 16.6134 5.75088 16.6542 5.75088H21.7412C21.8025 5.75088 21.8382 5.68032 21.7974 5.63496L21.328 4.84363C21.3126 4.82851 21.2922 4.81842 21.2718 4.81842H16.6491C16.6083 4.81842 16.5777 4.84867 16.5777 4.88899ZM14.3734 16.9505V17.7872C14.3734 17.8275 14.404 17.8577 14.4449 17.8577H29.0376C29.0938 17.8577 29.1295 17.7922 29.0938 17.7469L28.4509 16.9102C28.4355 16.895 28.4151 16.8799 28.3947 16.8799H14.4449C14.404 16.885 14.3734 16.9152 14.3734 16.9505ZM14.6388 24.1934V25.0654C14.6388 25.1057 14.6694 25.136 14.7102 25.136H33.8849C33.941 25.136 33.9767 25.0704 33.9461 25.0251L33.3338 24.1531C33.3185 24.1329 33.2981 24.1229 33.2726 24.1229H14.7102C14.6694 24.1229 14.6388 24.1581 14.6388 24.1934ZM15.098 0.957536H15.8072C15.8684 0.957536 15.9041 0.886972 15.8633 0.841609L15.149 0.0301168C15.1031 -0.0202864 15.0214 0.00995555 15.0214 0.0754798L15.0265 0.886972C15.0265 0.922254 15.0571 0.957536 15.098 0.957536ZM17.0011 26.6128V27.4848C17.0011 27.5251 17.0318 27.5553 17.0726 27.5553H37.2422C37.3035 27.5553 37.3392 27.4898 37.3035 27.4394L36.6453 26.5674C36.63 26.5473 36.6095 26.5372 36.584 26.5372H17.0726C17.0318 26.5372 17.0011 26.5725 17.0011 26.6128ZM20.7514 8.24584C20.8126 8.24584 20.8432 8.18032 20.8075 8.12992L20.1493 7.25794C20.134 7.23778 20.1136 7.2277 20.0932 7.2277H15.547C15.5062 7.2277 15.4755 7.25794 15.4755 7.29826V8.17024C15.4755 8.21056 15.5062 8.2408 15.547 8.2408H20.7514V8.24584ZM30.6449 22.7267C30.7061 22.7267 30.7367 22.6612 30.701 22.6108L30.0428 21.7388C30.0275 21.7186 30.0071 21.7085 29.9867 21.7085H15.7511C15.7102 21.7085 15.6796 21.7388 15.6796 21.7791V22.6511C15.6796 22.6914 15.7102 22.7217 15.7511 22.7217H30.6449V22.7267ZM15.1949 15.4132C15.1949 15.4535 15.2255 15.4837 15.2663 15.4837H25.7823C25.8435 15.4837 25.8793 15.4132 25.8384 15.3678L25.1343 14.4958C25.119 14.4807 25.0986 14.4706 25.0782 14.4706H15.2663C15.2255 14.4706 15.1949 14.5009 15.1949 14.5412V15.4132ZM16.8634 19.3698V20.2418C16.8634 20.2821 16.894 20.3124 16.9348 20.3124H32.1501C32.2113 20.3124 32.247 20.2469 32.2113 20.1965L31.5531 19.3245C31.5378 19.3043 31.5174 19.2942 31.4919 19.2942H16.9348C16.894 19.2993 16.8634 19.3295 16.8634 19.3698ZM6.44435 24.1229C6.38822 24.1229 6.3372 24.1581 6.31169 24.2085L5.91881 25.0503C5.8984 25.0906 5.92901 25.141 5.97493 25.141H12.0927C12.1284 25.141 12.159 25.1108 12.159 25.0755V24.1833C12.159 24.1481 12.1284 24.1178 12.0927 24.1178H6.44435V24.1229ZM36.9616 35.0604L37.6096 34.2741C37.6504 34.2287 37.6147 34.1581 37.5535 34.1581H0.0714944C0.0153683 34.1581 -0.0203482 34.2186 0.010266 34.269L0.540912 35.1057C0.566424 35.1511 0.617447 35.1763 0.668471 35.1763H36.7167C36.8085 35.1763 36.9004 35.1309 36.9616 35.0604ZM4.45443 22.7267H11.3171C11.3579 22.7267 11.3885 22.6965 11.3885 22.6561V21.7791C11.3885 21.7388 11.3579 21.7085 11.3171 21.7085H5.16876C5.11773 21.7085 5.06671 21.7338 5.03099 21.7741L4.3932 22.6108C4.36258 22.6612 4.3983 22.7267 4.45443 22.7267ZM1.85222 27.5553H10.6691C10.7099 27.5553 10.7405 27.5251 10.7405 27.4848V26.6128C10.7405 26.5725 10.7099 26.5422 10.6691 26.5422H2.37266C2.30633 26.5422 2.2502 26.5775 2.21959 26.6329L1.79099 27.4545C1.76548 27.4999 1.8012 27.5553 1.85222 27.5553ZM4.75547 28.9515C4.66362 28.9515 4.58199 29.0019 4.54117 29.0825L4.15339 29.8436C4.12788 29.889 4.1738 29.9444 4.22482 29.9293L7.52605 29.0725C7.59748 29.0523 7.58218 28.9515 7.51074 28.9515H4.75547ZM33.8032 38.9868H0.852156C0.790928 38.9868 0.755211 39.0523 0.785826 39.1027L1.28076 39.889C1.32668 39.9596 1.40321 40.0049 1.48995 40.0049H33.0634C33.1705 40.0049 33.2675 39.9545 33.3287 39.8688L33.8594 39.1077C33.9002 39.0573 33.8645 38.9868 33.8032 38.9868ZM37.9311 36.5725H2.17367C2.10734 36.5725 2.07672 36.6481 2.12265 36.6934L2.65839 37.5654C2.6737 37.5805 2.68901 37.5856 2.70942 37.5856H37.1096C37.1912 37.5856 37.2677 37.5503 37.3188 37.4898L37.9821 36.6884C38.0229 36.643 37.9923 36.5725 37.9311 36.5725ZM11.2967 10.7156H12.0059C12.0467 10.7156 12.0774 10.6854 12.0774 10.645L12.0825 9.83355C12.0825 9.76802 12.0008 9.73778 11.9549 9.78818L11.2406 10.5997C11.1998 10.645 11.2355 10.7156 11.2967 10.7156ZM7.32196 17.8981H10.6691C10.7099 17.8981 10.7456 17.8628 10.7456 17.8225V16.9555C10.7456 16.9152 10.7099 16.8799 10.6691 16.8799H7.91893C7.85771 16.8799 7.79648 16.9102 7.76586 16.9656L7.26073 17.7821C7.22501 17.8376 7.26073 17.8981 7.32196 17.8981ZM10.0721 13.0745H11.3171C11.3579 13.0745 11.3885 13.0442 11.3885 13.0039V12.1319C11.3885 12.0916 11.3579 12.0614 11.3171 12.0614H10.6997C10.6334 12.0614 10.5722 12.0967 10.5364 12.1521L10.0109 12.9686C9.98029 13.009 10.0109 13.0745 10.0721 13.0745ZM14.5061 29.9696H35.7268C35.7881 29.9696 35.8187 29.9041 35.783 29.8537L35.1401 29.0019C35.1145 28.9717 35.0788 28.9515 35.038 28.9515H14.5061C14.4653 28.9515 14.4347 28.9817 14.4347 29.0221V29.894C14.4296 29.9344 14.4653 29.9696 14.5061 29.9696ZM9.94457 15.4888H12.2202C12.261 15.4888 12.2917 15.4585 12.2917 15.4182V14.5412C12.2917 14.5009 12.261 14.4706 12.2202 14.4706H10.3068C10.2456 14.4706 10.1946 14.5059 10.1742 14.5664L9.87824 15.3981C9.85783 15.4384 9.89355 15.4888 9.94457 15.4888ZM12.2866 20.2317V19.3749C12.2866 19.3346 12.2508 19.2993 12.21 19.2993H8.55163C8.48019 19.2993 8.41897 19.3396 8.38835 19.4001L7.97506 20.2015C7.94955 20.2519 7.98526 20.3124 8.04139 20.3124H12.21C12.2508 20.3073 12.2866 20.2721 12.2866 20.2317Z" fill="url(#paint0_linear)"/>
</g>
<defs>
<linearGradient id="paint0_linear" x1="19.0009" y1="40.0024" x2="19.0009" y2="-0.000124294" gradientUnits="userSpaceOnUse">
<stop stop-color="#37A5CF"/>
<stop offset="0.2507" stop-color="#3DAEB5"/>
<stop offset="0.4898" stop-color="#6CB38E"/>
<stop offset="0.7414" stop-color="#93BA6B"/>
<stop offset="1" stop-color="#D4D654"/>
</linearGradient>
<clipPath id="clip0">
<rect width="160" height="40" fill="white"/>
</clipPath>
</defs>
</svg>
